<?xml version="1.0" encoding="utf-8"?>
<!-- Generator: Adobe Illustrator 21.1.0, SVG Export Plug-In . SVG Version: 6.00 Build 0)  -->
<svg version="1.1" id="Container" xmlns="http://www.w3.org/2000/svg" xmlns:xlink="http://www.w3.org/1999/xlink" x="0px" y="0px"
	 viewBox="0 0 411.3 841.9" style="enable-Rugground:new 0 0 411.3 841.9;" xml:space="preserve">
<style type="text/css">
	.st0{fill:#F6E7DD;}
	.st1{fill:#F7E7DE;}
</style>
<path id="Body" class="st0" d="M373.1,462.6c-2.4-1.3-3.7-3.5-5.4-5.6c-5.3-6.8-10.1-14.1-17.1-19.4c-5.1-3.8-9.1-9-10.7-15.5l0,0
	c-3.6-14.1-9.9-27.5-11.5-42.3c-1.3-11.4-3.4-22.7-5.1-34.1c-1.6-11-3.8-21.9-7.9-32.4c-2.2-5.6-4.9-11.1-6.2-17
	c-4.1-17.9-5.7-36.2-6.4-54.5c-0.6-15.2,1-30.5-1.6-45.6c-1-5.8-2.1-11.6-4.4-17.1c-3.4-8.3-10.6-13.1-18.1-16.7
	c-14.1-6.8-28.6-12.8-42.2-20.4c-4.7-2.6-8.7-5.5-10.8-10.2c-0.8-1.7-1.3-3.6-1.5-5.8c-0.8-8.6-0.5-17,1.6-25.3c0.6-2.3,0.7-4.7,4-5
	c0.8-0.1,1.9-1.2,2.2-2.1c2.9-7.5,8-14.9,2.1-23.2c-0.4-0.6-0.3-1.2-0.2-1.9c1.2-4.9,1.3-9.8,2-14.8c1.2-9.4,0.1-17.9-5.7-25.7
	c-6-8.1-13.8-13.3-23.3-16.2c-3.6-1.1-7.2,0.8-10.9,0.4c-2.3-0.2-4.5-1.1-7-0.6c-8.5,1.5-15.9,4.9-21.6,11.6
	c-6.6,7.7-11.5,15.9-10.8,26.5c0.3,5.4,0.8,10.7,1.7,16c0.2,1.1,0.6,2-0.2,3.3c-4.7,7.1-2.3,20.2,4.6,25.3c1.2,0.9,1.8,1.9,1.8,3.3
	c0.1,2.4,1,4.6,1.4,6.9c1.1,6.7,4.9,12.6,4.3,19.8c-0.3,3.7-0.9,6.9-2.2,9.8c-1.6,3.8-4.4,6.9-9,9.3c-14.2,7.4-29.1,13.4-43.5,20.5
	c-7.5,3.7-13.5,8.1-15.9,16.7c-1.6,6-2.9,11.9-3.8,17.9c-1.3,8.4-1.9,16.9-1.7,25.6c0.2,9.8,0.3,19.7-1,29.5c-1,8-1.9,16.1-2.9,24.1
	c-1.1,8.4-2,16.8-5.6,24.8c-4.4,9.7-7.5,19.9-9.5,30.4c-2.6,14-5.4,28-7.3,42.1c-1.8,13.6-6.3,26.6-9.4,39.8
	c7.3,3,14.9,5.7,22.3,8.9c8-24.6,19.8-47.6,28.3-71.9c3.6-10.4,8.8-20.2,11.3-31.1c1.1-4.8-0.3-9.8,0.8-14.5
	c2.6-11.2,5.7-22.2,8-34.2c2,5.3,2.5,10.3,2.6,15c0.3,13.4,1.4,26.9-1.7,40.1c-2.3,9.9-4.1,19.7-3.7,29.9c0.2,4.4,0,9.1-1.3,13.2
	c-5.6,18.3-6.2,37.1-6.5,56c-0.1,5.8-0.1,11.5,0.7,17.3c1.1,8.4,1.5,16.9,2.6,25.4c1.6,11.7,3.5,23.3,5.3,34.9
	c2.5,16.3,4.1,32.6,8.4,48.7c3.1,11.5,1.4,23.8,0.9,35.7c-0.4,11.3-3.2,22.5-4.3,33.8c-0.8,8-0.8,16,0.1,24
	c1.1,9.7,2.4,19.5,3.5,29.2c1,8.6,1.9,17.1,2.9,25.7c0.8,7,2.3,14,2.4,21c0.1,7.1-2.2,14-3.1,21.1c-1,7.8-4.4,15.9-9.6,22.6
	c-3.4,4.4-6.5,8.9-9.3,13.6c-5.7,9.5-5.5,21.2,3,28.9c1.3,1.2,3.1,1.7,4.3,3.3c2.7,3.4,6,2.7,7.9-1.4c0.8-1.6,1-3.6,3-4.8
	c-0.4,2.1-0.9,4-0.8,6c0.1,1.6,0.7,2.8,2,3.6c3.4,1.9,8.6,0.9,10.4-2.6c3.5-6.9,6.2-14.3,6.4-22.1c0.2-6.4,0.3-12.6,3.1-18.4
	c0.6-1.3,0.6-2.8,1-4.2c1.2-4.4,0.3-8.9,1-13.3c1.5-9.6,6-18.9,2.2-28.9c-0.3-0.7,0-1.6,0-2.4c-0.7-15,2.3-29.5,5.3-44
	c3.5-16.7,9-33.2,6.6-50.7c-0.7-5.1-0.2-10.3-1.1-15.3c-1.2-7-0.3-13.5,2.2-20c3.1-8.1,6.6-16.1,6.7-24.9
	c0.1-14.2,0.8-28.3,2.2-42.4c1.5-14.9,5.3-29.3,7-44.2c0.3-2.8,0.6-4.9,4.4-4c1.3,0.3,3-0.7,4.4-1.4c4-1.9,4.3-1.9,4.8,2.7
	c1,9.3,3.4,18.3,5.5,27.3c4.7,19.7,7.3,39.6,7.9,59.8c0.2,7.8,1.8,15.2,5.2,22c4.8,9.7,7.2,19.7,6.7,30.3c-0.4,8.6,1.1,17,0.9,25.6
	c-0.1,2.8,0.5,5.8,1.2,8.5c4.2,16.8,9.4,33.2,11.8,50.4c1.8,13,4.7,25.8,1.3,39c-0.3,1.1-0.2,2.4,0.2,3.5c3.1,9.3,5.6,18.8,6.9,28.6
	c0.8,5.7,3.8,10.8,3.9,16.8c0.1,9.2,1.9,18.2,5.5,26.8c2,4.6,5.1,7.1,9.3,6.3c3.9-0.7,8-1.6,11.4-3.1c4.7-2.1,8.5-6.3,9.9-11.8
	c0.3-1,0.3-2,1.1-2.9c3.6-3.7,3.6-8.3,2.6-12.9c-1.5-6.6-5.4-12-9.4-17.1c-5.7-7.1-7.9-16-13.3-23.1c-0.5-0.6-0.3-1.8-0.5-2.7
	c-1.3-4.6,0.1-9.6-2-13.9c-1.7-3.5-2.1-7-1.9-10.7c0.2-4.5,0.4-8.9,0.6-13.3c1-16.5,1.1-33,2.6-49.5c0.6-6.2,0-12.4,0.9-18.5
	c1-6.6-0.2-13.1-0.7-19.5c-1.1-12.9-6.3-25.1-7.6-38.1c-1.1-11.3-1.7-22.7,0.8-33.7c3.5-15.8,4.9-31.8,6.4-47.8
	c1.1-12.4,2.3-24.8,3.4-37.1c1.2-14.3,3.6-28.5,1.6-42.9c-2-14.4-3.2-28.9-6.9-42.9c-2.4-9.2-4.8-18.3-4.6-28c0.1-6.4-0.7-13-2-19.5
	c-1.6-8.3-3.8-16.6-4.1-25.1c-0.5-12.9,2.2-25.5,4.5-38.1c0.3-1.5-0.5-3.6,1.7-5c0.4,8,1.7,15.4,3.4,22.8c1.9,8.8,5,17.3,4.9,26.6
	c-0.1,7.6,2.5,14.9,5.6,21.9c2.8,6.2,5.3,12.6,7.5,19c7.5,21.3,16.4,42.1,25.3,62.8c1.5,3.5,3.1,6.6,4.3,10.1c2,6,3.1,12.1,2.3,18.7
	c-0.4,3.1,0.6,6,1.1,8.9c0.6,3.5,1.9,6.9,2,10.3c0.2,5.6,0.6,11.3-0.6,16.9c-0.4,2.1-0.4,4.4,0.4,6.6c0.6,1.8,1.3,3.3,3.4,3
	c1.9-0.3,2.2-1.8,2.4-3.5c0.9-6.3,1-12.7,2.9-18.9c0.2,1.3,0.2,2.6,0.2,3.9c0,8.2,0,16.3,0,24.5c0,2.4,0.3,4.7,3.4,4.7
	c2.9,0,2.9-2.2,3-4.5c0.2-8.2,2-16.4,1.7-24.6c2.1,8.5,1.1,17.2,1.4,25.8c0.1,2.6,0.6,5.4,3.7,5.6c2.9,0.2,4-2.6,4-5
	c-0.1-6.4,0.7-12.8,0.9-19.3c0.1-2.1-1.5-4.1-0.3-6.7c1.1,3,1.8,5.7,1.9,8.7c0.1,3.7,0.4,7.3,0.9,11c0.3,2.1,1.2,4.3,3.8,4.3
	c2.5,0,2.9-1.9,3.3-4.1c1.8-8.2-0.2-16.2-1.3-24.2c-0.6-4.5-1.4-9.1-2.1-13.6c0.5-0.3,1-0.6,1.5-0.9c1.3,1.7,2.3,3.5,3.8,4.9
	c2.9,2.8,6.3,4.8,10.5,4.8c1.4,0,2.7-0.1,3.1-1.7C375.1,463.9,374.2,463.2,373.1,462.6z"/>
<g id="Schouders">
	<path id="Schouders" class="st0" d="M296.8,179.2c-3.4-8.3-10.6-13.1-18.1-16.7c-13.3-6.4-26.9-12.1-39.9-19.2
		c-20.6,0-41.9,0-62.8,0l-16.9,0.3c-14.2,7.4-29.1,13.4-43.5,20.5c-7.5,3.7-13.5,8.1-15.9,16.7c-1.4,5-2.5,10-3.4,15.1
		c17.4,0.9,34.8,2.6,52.2,2.6c49.9,0,101.1-1.3,152.4-3.9C300,189.4,298.8,184.1,296.8,179.2z"/>
</g>
<g id="Hoofd">
	<path id="Hoofd" class="st1" d="M224.3,108.8c0.3-2.7,0.8-5.5,1.5-8.2c0.6-2.3,0.7-4.7,4-5c0.8-0.1,1.9-1.2,2.2-2.1
		c2.9-7.5,8-14.9,2.1-23.2c-0.4-0.6-0.3-1.2-0.2-1.9c1.2-4.9,1.3-9.8,2-14.8c1.2-9.4,0.1-17.9-5.7-25.7c-6-8.1-13.8-13.3-23.3-16.2
		c-3.6-1.1-7.2,0.8-10.9,0.4c-2.3-0.2-4.5-1.1-7-0.6c-8.5,1.5-15.9,4.9-21.6,11.6c-6.6,7.7-11.5,15.9-10.8,26.5
		c0.3,5.4,0.8,10.7,1.7,16c0.2,1.1,0.6,2-0.2,3.3c-4.7,7.1-2.3,20.2,4.6,25.3c1.2,0.9,1.8,1.9,1.8,3.3c0.1,2.4,1,4.6,1.4,6.9
		c0.3,1.6,0.7,3.1,1.2,4.7C186.1,109.5,205.2,109,224.3,108.8z"/>
</g>
<g id="Benen">
	<path id="Benen" class="st0" d="M189.7,485.9c-0.5,0-1,0-1.6,0C188.6,485.9,189.1,485.9,189.7,485.9c-22-2.9-44-5.8-66-6.2
		c1.2,8.1,2.5,16.1,3.8,24.1c2.5,16.3,4.1,32.6,8.4,48.7c3.1,11.5,1.4,23.8,0.9,35.7c-0.4,11.3-3.2,22.5-4.3,33.8
		c-0.8,8-0.8,16,0.1,24c1.1,9.7,2.4,19.5,3.5,29.2c1,8.6,1.9,17.1,2.9,25.7c0.4,3.2,0.9,6.3,1.3,9.5c7.6,0.5,15.1,0.8,22.7,1.2
		c0.7-11,3-21.9,5.2-32.7c3.5-16.7,9-33.2,6.6-50.7c-0.7-5.1-0.2-10.3-1.1-15.3c-1.2-7-0.3-13.5,2.2-20c3.1-8.1,6.6-16.1,6.7-24.9
		c0.1-14.2,0.8-28.3,2.2-42.4c1.3-13.4,4.5-26.4,6.4-39.6C190.7,485.9,190.2,485.9,189.7,485.9z"/>
	<path id="Benen" class="st0" d="M270,711.2c1-16.5,1.1-33,2.6-49.5c0.6-6.2,0-12.4,0.9-18.5c1-6.6-0.2-13.1-0.7-19.5
		c-1.1-12.9-6.3-25.1-7.6-38.1c-1.1-11.3-1.7-22.7,0.8-33.7c3.5-15.8,4.9-31.8,6.4-47.8c0.6-7.1,1.3-14.1,2-21.2
		c-18.9,0.7-38.1,1-56.5,2.2h1.6h-1.6c-4,0-7.8,0-11.5,0c1.2,6.8,2.9,13.4,4.5,20.1c4.7,19.7,7.3,39.6,7.9,59.8
		c0.2,7.8,1.8,15.2,5.2,22c4.8,9.7,7.2,19.7,6.7,30.3c-0.4,8.6,1.1,17,0.9,25.6c-0.1,2.8,0.5,5.8,1.2,8.5
		c4.2,16.8,9.4,33.2,11.8,50.4c0.9,6.4,2.1,12.8,2.6,19.2c7.4,0.9,14.9,1.3,22.3,1.4C269.6,718.8,269.8,715,270,711.2z"/>
</g>
<g id="Enkels">
	<path id="Enkels" class="st1" d="M141.4,721.8c0.1,7.1-2.2,14-3.1,21.1c-0.2,1.5-0.5,3.1-0.9,4.6c8,0.2,16.2,0.8,24.4,1.4
		c1.8-7.8,4.3-15.6,1.2-23.8c-0.3-0.7,0-1.6,0-2.4c-0.2-3.8-0.1-7.5,0.1-11.3c-7.6-0.4-15-0.7-22.7-1.2
		C140.9,714.1,141.4,717.9,141.4,721.8z"/>
	<path id="Enkels" class="st1" d="M273.5,750.2c-1.3-4.6,0.1-9.6-2-13.9c-1.7-3.5-2.1-7-1.9-10.7c0-0.6,0.1-1.3,0.1-1.9
		c-7.4-0.2-14.9-0.5-22.3-1.4c0.5,6.5,0.4,13.1-1.3,19.7c-0.3,1.1-0.2,2.4,0.2,3.5c1,3.1,2,6.2,2.8,9.3c8.9,0,17.6,0,26.3,0
		c-0.4-0.6-0.8-1.3-1.3-1.9C273.6,752.2,273.8,751.1,273.5,750.2z"/>
</g>
<g id="Voeten">
	<path id="Voeten" class="st1" d="M161.8,749.3c-8.2-0.6-16.4-1.2-24.4-1.4c-1.5,6.3-4.5,12.6-8.7,18c-3.4,4.4-6.5,8.9-9.3,13.6
		c-5.7,9.5-5.5,21.2,3,28.9c1.3,1.2,3.1,1.7,4.3,3.3c2.7,3.4,6,2.7,7.9-1.4c0.8-1.6,1-3.6,3-4.8c-0.4,2.1-0.9,4-0.8,6
		c0.1,1.6,0.7,2.8,2,3.6c3.4,1.9,8.6,0.9,10.4-2.6c3.5-6.9,6.2-14.3,6.4-22.1c0.2-6.4,0.3-12.6,3.1-18.4c0.6-1.3,0.6-2.8,1-4.2
		c1.2-4.4,0.3-8.9,1-13.3C161,752.6,161.4,751,161.8,749.3z"/>
	<path id="Voeten" class="st1" d="M287.3,776c-5.2-6.5-7.6-14.5-12-21.3c-8.7,0-17.4,0-26.3,0c1.8,6.3,3.2,12.7,4.1,19.3
		c0.8,5.7,3.8,10.8,3.9,16.8c0.1,9.2,1.9,18.2,5.5,26.8c2,4.6,5.1,7.1,9.3,6.3c3.9-0.7,8-1.6,11.4-3.1c4.7-2.1,8.5-6.3,9.9-11.8
		c0.3-1,0.3-2,1.1-2.9c3.6-3.7,3.6-8.3,2.6-12.9C295.3,786.5,291.4,781.1,287.3,776z"/>
</g>
<g id="Heupen">
	<path id="Heupen" class="st0" d="M125.2,371c-5.6,18.3-6.2,37.1-6.5,56c-0.1,5.8-0.1,11.5,0.7,17.3c1.1,8.4,1.5,16.9,2.6,25.4
		c0.4,3.3,0.9,6.5,1.4,9.8c0,0.3,0.1,0.6,0.1,0.9c22,0.4,44,3.3,66,6.2c0.5,0,1.1,0,1.6,0c0.2-1.5,0.4-3,0.6-4.5
		c0.3-2.8,0.6-4.9,4.4-4c1.3,0.3,3-0.7,4.4-1.4c4-1.9,4.3-1.9,4.8,2.7c0.3,2.4,0.6,4.8,1,7.2c3.8,0,7.6,0,11.5,0
		c18.4-1.2,37.6-1.5,56.5-2.2c0.3-2.9,0.5-5.8,0.8-8.8c0.2-2.4,0.4-4.8,0.6-7.2c1.2-14.3,3.6-28.5,1.6-42.9
		c-2-14.4-3.2-28.9-6.9-42.9c-1.6-6.1-3.2-12.2-4-18.5c-46.4,1.3-94,1.4-140.5,1.4C126.1,367.5,125.8,369.3,125.2,371z"/>
</g>
<g id="Nek">
	<path id="Nek" class="st0" d="M236.5,142c-4.7-2.6-8.7-5.5-10.8-10.2c-0.8-1.7-1.3-3.6-1.5-5.8c-0.8-8.6-0.5-17,1.6-25.3
		c0.1-0.4,0.2-0.8,0.3-1.2c-20.5-0.4-41-0.4-61.5-0.4c0.3,1.9,0.9,3.7,1.3,5.5c1.1,6.7,4.9,12.6,4.3,19.8c-0.3,3.7-0.9,6.9-2.2,9.8
		c-1.6,3.7-4.2,6.7-8.6,9.1c26.8,0,52.9,0,79.5,0C238.1,142.9,237.3,142.5,236.5,142z"/>
</g>
<g id="Rug">
	<path id="Rug" class="st0" d="M269.1,179.9c1.4,1.9,1,3.4,1,3.4l-5.3,88.1c-2.3,12.6-5,25.2-4.5,38.1
		c0.3,8.6,2.5,16.8,4.1,25.1c1.3,6.5,2.1,13.1,2,19.5c-0.2,9.4,2,18.1,4.3,27c-49.4,0.9-98.8-1.1-148.1,0.6
		c0.8-3.8,1.7-7.5,2.8-11.2c1.3-4.2,1.4-8.8,1.3-13.2c-0.4-10.2,1.4-20.1,3.7-29.9c3.1-13.2,2-26.7,1.7-40.1
		c-0.1-4.7-0.6-9.6-2.6-15l-5-88.2c0,0-0.4-3.7,2.7-4.7c3.7-1.1,4.9-0.9,4.9-0.9h133C265,178.6,268.1,178.6,269.1,179.9z"/>
</g>
<g id="Knieen">
	<path id="Knieen" class="st1" d="M175.8,593.5c3.1-8.1,6.6-16.1,6.7-24.9c0.1-11,0.5-21.9,1.4-32.8c-17.3-0.4-34.6-0.5-52-0.2
		c1,5.9,2.2,11.7,3.8,17.5c3.1,11.5,1.4,23.8,0.9,35.7c-0.3,8.2-1.8,16.4-3.1,24.6c13.3,0.2,26.6-0.1,40.1-0.5
		C172.5,606.2,173.4,599.8,175.8,593.5z"/>
	<path id="Knieen" class="st1" d="M270.2,608.6c-1.9-7.6-4.1-15.2-4.9-23.1c-1.1-11.3-1.7-22.7,0.8-33.7c1.1-5,2-9.9,2.7-14.9
		c-17.5-0.4-35-1.1-52.4-1.7c1.3,9.9,2.1,19.8,2.4,29.7c0.2,7.8,1.8,15.2,5.2,22c3.6,7.2,5.8,14.5,6.5,22.2
		c11.8-0.4,23.5-0.7,35.2-0.7C267.2,608.5,268.7,608.6,270.2,608.6z"/>
</g>
<g id="Handen">
	<path id="Handen" class="st0" d="M343.6,430.5c1.3,1.6,2,3.3,7.1,7.2c7.1,5.3,11.8,12.6,17.1,19.4c1.6,2.1,2.9,4.3,5.4,5.6
		c1.1,0.6,2,1.3,1.6,2.8c-0.5,1.7-1.8,1.7-3.1,1.7c-4.2,0-7.6-2-10.5-4.8c-1.5-1.4-2.6-3.3-3.8-4.9c-0.5,0.3-1,0.6-1.5,0.9
		c0.7,4.5,1.5,9.1,2.1,13.6c1.1,8,3,16,1.3,24.2c-0.5,2.1-0.8,4.1-3.3,4.1c-2.6,0-3.5-2.2-3.8-4.3c-0.5-3.6-0.7-7.3-0.9-11
		c-0.1-2.9-0.9-5.6-1.9-8.7c-1.2,2.6,0.4,4.6,0.3,6.7c-0.3,6.4-1,12.8-0.9,19.3c0,2.4-1.1,5.1-4,5c-3.1-0.2-3.6-2.9-3.7-5.6
		c-0.3-8.6,0.7-17.3-1.4-25.8c0.3,8.3-1.5,16.4-1.7,24.6c-0.1,2.3-0.1,4.5-3,4.5c-3.1,0-3.4-2.3-3.4-4.7c0-8.2,0-16.3,0-24.5
		c0-1.3,0-2.6-0.2-3.9c-1.9,6.2-2,12.6-2.9,18.9c-0.2,1.8-0.6,3.3-2.4,3.5c-2.1,0.3-2.8-1.2-3.4-3c-0.7-2.2-0.8-4.5-0.4-6.6
		c1.2-5.6,0.7-11.3,0.6-16.9c-0.1-3.5-1.3-6.9-2-10.3c-0.5-3-1.5-5.9-1.1-8.9c0.8-6.6-0.2-8.7-0.3-9.9L343.6,430.5z"/>
	<path id="Handen" class="st0" d="M78.4,433.6c0-0.2-0.9,4.1-0.3,10.8c0.3,3.1-0.6,6-1.1,8.9c-0.6,3.5-1.9,6.9-2,10.3
		c-0.2,5.6-0.6,11.3,0.6,16.9c0.4,2.1,0.4,4.4-0.4,6.6c-0.6,1.8-1.3,3.3-3.4,3c-1.9-0.3-2.2-1.8-2.4-3.5c-0.9-6.3-1-12.7-2.9-18.9
		c-0.2,1.3-0.2,2.6-0.2,3.9c0,8.2,0,16.3,0,24.5c0,2.4-0.3,4.7-3.4,4.7c-2.9,0-2.9-2.2-3-4.5c-0.2-8.2-2-16.4-1.7-24.6
		c-2.1,8.5-1.1,17.2-1.4,25.8c-0.1,2.6-0.6,5.4-3.7,5.6c-2.9,0.2-4-2.6-4-5c0.1-6.4-0.7-12.8-0.9-19.3c-0.1-2.1,1.5-4.1,0.3-6.7
		c-1.1,3-1.8,5.7-1.9,8.7c-0.1,3.7-0.4,7.3-0.9,11c-0.3,2.1-1.2,4.3-3.8,4.3c-2.5,0-2.9-1.9-3.3-4.1c-1.8-8.2,0.2-16.2,1.3-24.2
		c0.6-4.5,1.4-9.1,2.1-13.6c-0.5-0.3-1-0.6-1.5-0.9c-1.3,1.7-2.3,3.5-3.8,4.9c-2.9,2.8-6.3,4.8-10.5,4.8c-1.4,0-2.7-0.1-3.1-1.7
		c-0.4-1.5,0.5-2.2,1.6-2.8c2.4-1.3,3.7-3.5,5.4-5.6c5.3-6.8,10.1-14.1,17.1-19.4c5.4-4.8,7-7.7,7-7.7L78.4,433.6z"/>
</g>
<g id="Polsen">
	<path id="Polsen" class="st0" d="M58,417.2L58,417.2c-1.6,6.4-5.1,11.2-10.5,16.1c10,4.1,20.3,5.8,30.5,9.1c-0.4-5.7,0.7-11.6,2.3-16.8
		c2-6.4,4.3-12.7,6.8-19c-8.3-1.9-16.4-3.9-24.9-5.8C60.6,406.2,59.2,411.6,58,417.2z"/>
	<path id="Polsen" class="st0" d="M351.2,438.1c-0.2-0.1-0.4-0.3-0.6-0.5c-5.1-3.8-9.1-9-10.7-15.5l0,0c-1-4.1-2.3-8.1-3.6-12.1
		c-8.2,2.4-16.5,4.9-24.7,6.4c0.4,1,0.9,2.1,1.3,3.1c1.5,3.5,3.1,6.6,4.3,10.1c1.9,5.8,3.1,11.8,2.4,18.2
		C330.5,445.7,340.9,442,351.2,438.1z"/>
</g>
<g id="Armen">
	<path id="Armen" class="st0" d="M96.7,194.7c-0.2,1.3-0.5,2.7-0.7,4c-1.3,8.4-1.9,16.9-1.7,25.6c0.2,9.8,0.3,19.7-1,29.5
		c-1,8-1.9,16.1-2.9,24.1c-1.1,8.4-2,16.8-5.6,24.8c-4.4,9.7-7.5,19.9-9.5,30.4c-2.6,14-5.4,28-7.3,42.1
		c-1.8,13.6-6.3,26.6-9.4,39.8c7.3,3,14.9,5.7,22.3,8.9c8-24.6,19.8-47.6,28.3-71.9c3.6-10.4,8.8-20.2,11.3-31.1
		c1.1-4.8-0.3-9.8,0.8-14.5c2.5-10.9,5.5-21.8,7.9-33.5c-1.8-8.5,0.3-17-4-25.6C115.7,229.3,103.3,212.9,96.7,194.7z"/>
	<path id="Armen" class="st0" d="M328.5,379.9c-1.3-11.4-3.4-22.7-5.1-34.1c-1.6-11-3.8-21.9-7.9-32.4c-2.2-5.6-4.9-11.1-6.2-17
		c-4.1-17.9-5.7-36.2-6.4-54.5c-0.4-11.4,0.4-22.9-0.3-34.4c-20.6,12.9-30.4,40.1-35.9,63.3c0.6,6.3,1.7,12.4,3,18.4
		c1.9,8.8,5,17.3,4.9,26.6c-0.1,7.6,2.5,14.9,5.6,21.9c2.8,6.2,5.3,12.6,7.5,19c7.3,21,16,41.4,24.8,61.7c8.1-3,16.2-5.2,24.4-6.9
		C333.6,401.2,329.8,390.9,328.5,379.9z"/>
</g>
<g id="Ellebogen">
	<path id="Ellebogen" class="st0" d="M315.4,313.4c-2.2-5.6-4.9-11.1-6.2-17c-0.7-3.2-1.4-6.4-1.9-9.6c-12.2,2.2-24.6,3.9-36.5,6.9
		c1.8,7.2,3.9,14.4,3.8,22.1c-0.1,7.6,2.5,14.9,5.6,21.9c2.8,6.2,5.3,12.6,7.5,19c0.2,0.5,0.3,1,0.5,1.4c12.4-3.4,23.8-8.4,35-13.8
		C321.5,333.8,319.4,323.4,315.4,313.4z"/>
	<path id="Ellebogen" class="st0" d="M126.9,283c-11-8.3-22.9-13.9-35-19.6c-0.6,4.9-1.1,9.7-1.8,14.6c-1.1,8.4-2,16.8-5.6,24.8
		c-4.4,9.7-7.5,19.9-9.5,30.4c-0.2,1.1-0.4,2.1-0.6,3.2c11.5,5.3,22.4,12.2,35.3,13.8c3.6-9.7,8.2-19,10.6-29.1
		c1.1-4.8-0.3-9.8,0.8-14.5C123,298.7,125,291,126.9,283z"/>
</g>
</svg>
